<?xml version="1.0" standalone="no"?>
<!DOCTYPE svg PUBLIC "-//W3C//DTD SVG 20010904//EN"
 "http://www.w3.org/TR/2001/REC-SVG-20010904/DTD/svg10.dtd">
<svg version="1.0" xmlns="http://www.w3.org/2000/svg"
 width="906.000000pt" height="318.000000pt" viewBox="0 0 906.000000 318.000000"
 preserveAspectRatio="xMidYMid meet">

<g transform="translate(0.000000,318.000000) scale(0.100000,-0.100000)"
fill="#000000" stroke="none">
<path d="M1920 1064 l0 -206 -30 25 c-94 80 -253 49 -317 -61 -24 -40 -28 -58
-27 -117 1 -104 49 -182 131 -215 52 -20 144 -9 192 23 50 33 51 33 51 2 0
-23 3 -25 50 -25 l50 0 0 390 0 390 -50 0 -50 0 0 -206z m-52 -243 c32 -17 52
-63 52 -122 0 -46 -4 -55 -39 -90 -90 -90 -231 -27 -231 104 0 105 116 163
218 108z"/>
<path d="M5280 880 l0 -390 50 0 50 0 0 115 c0 131 10 167 59 208 44 36 92 37
120 1 19 -24 21 -40 21 -175 l0 -149 50 0 50 0 0 179 c0 178 0 180 -26 210
-52 63 -171 61 -239 -4 l-35 -32 0 213 0 214 -50 0 -50 0 0 -390z"/>
<path d="M7940 1064 l0 -206 -30 25 c-65 55 -164 60 -246 12 -114 -67 -137
-242 -44 -347 23 -27 54 -49 78 -57 59 -20 142 -10 191 22 50 33 51 33 51 2 0
-23 3 -25 50 -25 l50 0 0 390 0 390 -50 0 -50 0 0 -206z m-52 -243 c32 -17 52
-63 52 -121 0 -43 -5 -55 -33 -86 -55 -60 -147 -62 -203 -3 -22 23 -29 40 -32
88 -4 56 -2 61 30 96 48 53 118 63 186 26z"/>
<path d="M577 1219 c-60 -14 -129 -54 -174 -101 -121 -124 -138 -343 -38 -484
75 -105 163 -148 310 -148 77 -1 98 3 148 26 31 15 57 29 57 32 0 3 -9 25 -21
49 l-21 43 -44 -22 c-132 -67 -291 -18 -356 110 -25 49 -34 146 -19 203 43
159 207 237 357 169 l55 -25 20 47 c19 44 19 47 2 60 -55 40 -192 61 -276 41z"/>
<path d="M3593 1201 c2 -10 67 -181 143 -381 l138 -362 17 34 c9 18 51 114 94
213 43 99 79 181 80 183 2 2 40 -91 86 -207 45 -116 85 -211 88 -211 6 0 281
728 281 743 0 4 -24 7 -54 7 l-54 0 -84 -250 c-45 -137 -85 -246 -88 -242 -4
4 -49 116 -101 249 l-94 243 -52 0 c-29 0 -53 -1 -53 -3 0 -2 16 -42 35 -90
19 -48 35 -92 35 -99 0 -18 -114 -308 -121 -308 -4 0 -23 46 -42 103 -20 56
-59 168 -87 250 l-52 147 -60 0 c-54 0 -60 -2 -55 -19z"/>
<path d="M5965 1202 c-83 -39 -123 -112 -112 -208 9 -81 51 -116 226 -190 68
-29 101 -67 101 -119 0 -37 -5 -47 -35 -73 -58 -51 -138 -52 -236 -2 -21 11
-42 20 -48 20 -9 0 -55 -70 -49 -75 2 -1 26 -14 54 -28 155 -78 327 -53 398
57 21 33 26 52 26 106 0 56 -5 73 -29 112 -29 46 -61 65 -200 124 -91 38 -126
104 -86 161 34 48 139 54 230 14 l45 -20 21 41 c11 22 19 41 17 43 -2 2 -26
14 -53 26 -71 31 -214 37 -270 11z"/>
<path d="M2203 1105 c-13 -9 -23 -27 -23 -40 0 -55 76 -76 106 -29 16 24 16
27 -3 52 -24 33 -50 38 -80 17z"/>
<path d="M4662 1104 c-43 -30 -16 -94 41 -94 26 0 57 31 57 57 0 19 -37 53
-58 53 -10 0 -28 -7 -40 -16z"/>
<path d="M4950 1005 l0 -95 -40 0 -40 0 0 -40 0 -40 40 0 40 0 0 -170 0 -170
50 0 50 0 0 170 0 170 55 0 55 0 0 40 0 40 -55 0 -55 0 0 95 0 95 -50 0 -50 0
0 -95z"/>
<path d="M1158 916 c-107 -29 -168 -107 -168 -215 0 -74 23 -126 75 -169 86
-70 224 -71 309 0 50 41 76 98 76 171 0 108 -60 187 -164 214 -60 15 -67 15
-128 -1z m128 -95 c56 -34 78 -110 50 -174 -23 -55 -61 -82 -116 -82 -55 0
-93 27 -116 82 -39 91 22 193 116 193 19 0 49 -9 66 -19z"/>
<path d="M2655 916 c-31 -9 -60 -25 -77 -45 -15 -17 -30 -31 -33 -31 -3 0 -5
16 -5 35 0 35 0 35 -45 35 l-45 0 0 -210 0 -210 50 0 50 0 0 115 c0 131 10
167 59 208 44 36 92 37 120 1 19 -24 21 -40 21 -175 l0 -149 50 0 50 0 0 173
c0 154 -2 175 -20 205 -32 52 -96 69 -175 48z"/>
<path d="M3136 920 c-163 -52 -211 -275 -83 -387 84 -73 237 -68 291 9 15 22
16 20 16 -30 0 -29 -7 -66 -15 -81 -34 -66 -158 -81 -232 -27 l-38 27 -28 -33
c-15 -18 -26 -37 -24 -43 2 -5 32 -25 66 -43 51 -26 74 -32 124 -32 34 0 78 5
98 10 48 13 125 82 138 123 10 30 15 182 12 405 l-1 92 -44 0 c-39 0 -45 -3
-50 -25 -6 -23 -8 -24 -22 -10 -43 42 -146 65 -208 45z m147 -91 c12 -6 34
-23 50 -37 23 -22 27 -34 27 -79 0 -71 -21 -110 -73 -134 -56 -25 -97 -24
-138 4 -64 43 -86 121 -51 186 32 60 126 90 185 60z"/>
<path d="M6548 916 c-57 -20 -85 -42 -116 -88 -24 -38 -27 -50 -27 -133 0 -81
3 -96 25 -129 61 -89 203 -113 295 -48 l45 32 0 -30 c0 -29 1 -30 50 -30 l50
0 0 210 0 210 -50 0 c-49 0 -50 0 -50 -31 l0 -31 -35 30 c-34 30 -90 52 -130
52 -11 -1 -37 -7 -57 -14z m163 -99 c42 -28 59 -60 59 -112 0 -111 -108 -180
-198 -125 -123 75 -77 260 64 260 26 0 53 -8 75 -23z"/>
<path d="M7253 921 c-39 -10 -82 -36 -104 -64 -16 -19 -16 -19 -23 17 -7 35
-8 36 -51 36 l-45 0 0 -210 0 -210 49 0 49 0 4 123 c5 137 18 175 71 207 41
26 78 25 105 0 21 -20 22 -29 22 -175 l0 -155 55 0 55 0 0 163 c0 134 -3 168
-18 196 -31 62 -97 89 -169 72z"/>
<path d="M2180 700 l0 -210 55 0 55 0 0 210 0 210 -55 0 -55 0 0 -210z"/>
<path d="M4640 700 l0 -210 55 0 55 0 0 210 0 210 -55 0 -55 0 0 -210z"/>
<path d="M8199 788 c32 -68 75 -156 95 -195 20 -40 36 -80 35 -90 0 -10 -20
-61 -43 -113 l-44 -95 45 -3 c25 -2 49 0 54 5 5 6 235 524 266 601 4 10 -6 12
-43 10 l-48 -3 -58 -130 c-32 -71 -62 -133 -67 -138 -4 -4 -36 55 -71 133
l-63 140 -58 0 -58 0 58 -122z"/>
</g>
</svg>
