<?xml version="1.0" encoding="UTF-8" standalone="no"?>
<!-- Created with Inkscape (http://www.inkscape.org/) -->

<svg
   width="205"
   height="63"
   viewBox="0 0 54.239593 16.66875"
   version="1.1"
   id="svg1"
   inkscape:version="1.3 (0e150ed6c4, 2023-07-21)"
   sodipodi:docname="logo.svg"
   xml:space="preserve"
   inkscape:export-filename="logo-new.svg"
   inkscape:export-xdpi="65.599998"
   inkscape:export-ydpi="65.599998"
   xmlns:inkscape="http://www.inkscape.org/namespaces/inkscape"
   xmlns:sodipodi="http://sodipodi.sourceforge.net/DTD/sodipodi-0.dtd"
   xmlns="http://www.w3.org/2000/svg"
   xmlns:svg="http://www.w3.org/2000/svg"><sodipodi:namedview
     id="namedview1"
     pagecolor="#ffffff"
     bordercolor="#000000"
     borderopacity="0.25"
     inkscape:showpageshadow="2"
     inkscape:pageopacity="0.0"
     inkscape:pagecheckerboard="0"
     inkscape:deskcolor="#d1d1d1"
     inkscape:document-units="mm"
     inkscape:zoom="2.2403212"
     inkscape:cx="127.88345"
     inkscape:cy="-23.210957"
     inkscape:window-width="1920"
     inkscape:window-height="1010"
     inkscape:window-x="-6"
     inkscape:window-y="-6"
     inkscape:window-maximized="1"
     inkscape:current-layer="g1" /><defs
     id="defs1"><rect
       x="64.357399"
       y="15.601794"
       width="229.15135"
       height="65.820068"
       id="rect1" /></defs><g
     inkscape:label="Layer 1"
     inkscape:groupmode="layer"
     id="layer1"><g
       style="fill:#000000"
       id="g1"
       transform="matrix(8.8194444,0,0,8.8194444,-66.811072,-93.062411)"><rect
         id="primary"
         x="7.7408652"
         y="10.964893"
         width="0.76635206"
         height="0.98530978"
         rx="0.054739419"
         style="fill:none;stroke:#424242;stroke-width:0.109479;stroke-linecap:round;stroke-linejoin:round;stroke-opacity:1" /><path
         id="secondary"
         d="m 7.959823,11.129112 a 0.05473943,0.05473943 0 0 0 0.054739,0.05473 h 0.2189576 a 0.05473943,0.05473943 0 0 0 0.054739,-0.05473 V 10.964894 H 7.959823 Z m 0.1642183,0.547394 v -0.218957 m 0.1094788,0.109479 H 8.0145625"
         style="fill:none;stroke:#2ca9bc;stroke-width:0.109479;stroke-linecap:round;stroke-linejoin:round" /><path
         style="font-size:32px;font-family:Pristina;-inkscape-font-specification:Pristina;white-space:pre"
         d="m 80.841797,24.848173 q -0.75,3.046875 -1.734375,4.703125 -0.453125,0.78125 -0.890625,0.78125 -0.171875,0 -0.421875,-0.07813 -1.1875,-0.359375 -1.1875,-0.859375 0,-0.25 0.328125,-0.328125 1.375,-2.0625 1.625,-4.953125 -0.859375,-0.765625 -1.625,-0.765625 -1.625,-0.01563 -3.84375,2.859375 -2.046875,2.6875 -3.546875,6.375 -1.5625,3.84375 -1.5,6.40625 0.01563,1.484375 0.890625,2.21875 0.640625,0.53125 1.453125,0.53125 0.46875,0 1.078125,-0.1875 1.5,-0.46875 3.46875,-1.8125 1.875,-1.28125 3.125,-2.609375 0.390625,-0.421875 0.46875,-1.078125 0.04687,-0.34375 0.3125,-0.34375 0.21875,0 0.328125,0.28125 0.5625,1.40625 0.5625,1.953125 0,0.515625 -0.421875,0.96875 -0.28125,0.28125 -1.328125,1.078125 -3.3125,2.484375 -5.6875,3.09375 -0.734375,0.1875 -1.34375,0.1875 -1.28125,0 -1.953125,-0.859375 -3.046875,-1.140625 -3.046875,-3.484375 0,-3.78125 1.984375,-8.125 1.703125,-3.765625 4.203125,-6.625 2.40625,-2.734375 3.90625,-2.84375 0.546875,-0.04687 1.265625,0.453125 0.09375,0.0625 1.453125,1.171875 0.07813,-0.625 0.421875,-0.625 0.375,0 1.265625,0.6875 0.5625,0.4375 0.5625,0.84375 0,0.265625 -0.171875,0.984375 z m 10.359375,8.125 q -0.03125,1.390625 -0.671875,3.6875 -1.015625,3.625 -2.875,5.625 -0.984375,1.0625 -2.1875,1.0625 -0.46875,0 -1.203125,-0.203125 -1.46875,-0.09375 -2.390625,-0.921875 -1,-0.90625 -0.9375,-2.328125 0.0625,-1.65625 1.140625,-4.625 1.1875,-3.234375 2.46875,-4.65625 0.609375,-0.6875 1,-0.6875 0.53125,0 1.71875,1.09375 0.328125,-0.15625 1.34375,-0.578125 0.515625,-0.171875 0.78125,-0.171875 0.609375,0 1.359375,1.140625 0.484375,0.703125 0.453125,1.5625 z m -1.796875,0.453125 q 0.109375,-1.046875 0.109375,-1.328125 0,-0.65625 -0.40625,-0.65625 -0.15625,0 -0.40625,0.0625 l -2.421875,0.984375 q -0.421875,0.171875 -0.484375,0.171875 -0.125,0 -0.25,-0.296875 -0.90625,1.109375 -1.6875,3.203125 -0.609375,1.640625 -0.84375,2.9375 -0.171875,0.875 -0.171875,1.59375 0,2.40625 1.484375,2.34375 0.59375,-0.01563 1.28125,-0.46875 1.3125,-0.890625 2.453125,-3.5625 1.09375,-2.515625 1.34375,-4.984375 z m 22.187503,-14.8125 q 0.1875,0.140625 0.1875,0.3125 0,0.296875 -0.375,0.296875 -0.14063,0 -0.29688,-0.07813 -0.73437,-0.359375 -1.09375,-0.359375 -0.96875,0 -2.14062,1.90625 -4.29688,7.015625 -6.26563,18.6875 0.40625,-0.390625 1.09375,-1.21875 0.40625,-0.484375 0.59375,-0.484375 0.42188,0 0.0781,0.484375 -1.5,2.078125 -1.98438,4.484375 -0.1875,0.578125 -0.46875,0.578125 -0.14062,0 -0.34375,-0.140625 -0.781248,-0.53125 -0.874998,-0.625 -0.3125,-0.296875 -0.3125,-0.796875 0,-0.265625 0.07813,-0.625 0.671873,-3.609375 1.109373,-5.375 -1.531248,2.203125 -3.468748,4.40625 -1.921875,2.1875 -2.796875,2.765625 -0.671875,0.453125 -1,0.453125 -0.28125,0 -0.859375,-0.453125 -1.015625,-0.625 -1.015625,-1.453125 0,-0.140625 0.03125,-0.3125 0.328125,-2.328125 2.078125,-5.390625 1.765625,-3.078125 4.03125,-5.171875 0.734375,-0.6875 1.3125,-0.671875 0.609375,0.03125 2.171878,1.484375 0.14062,0.125 0.14062,0.265625 0,0.25 -0.32812,0.25 -0.10938,0 -0.23438,-0.04687 -1.093748,-0.46875 -1.781248,0.03125 -1.46875,1.09375 -3.234375,3.796875 -2.046875,3.125 -2.40625,5.625 -0.07813,0.59375 0.3125,0.59375 0.515625,0 1.265625,-0.734375 1.734375,-1.703125 3.734375,-4.28125 2.046873,-2.671875 2.625003,-4.03125 0.32812,-0.75 0.51562,-1.4375 1.625,-5.75 3.625,-9.828125 1.5625,-3.1875 2.75,-4.28125 0.4375,-0.421875 0.84375,-0.421875 0.4375,0 1.125,0.515625 0.78125,0.640625 1.57813,1.28125 z m 0.1875,6.78125 q 0.25,0.1875 0.25,0.421875 0,0.453125 -1.34375,1.40625 -0.89063,0.609375 -1.71875,0.4375 -0.46875,-0.09375 -0.8125,-0.34375 -0.10938,-0.09375 -0.17188,-0.1875 -0.0469,-0.109375 -0.0156,-0.171875 0.0469,-0.0625 0.1875,-0.03125 1.4375,-1.25 1.89062,-1.796875 0.35938,-0.40625 0.51563,-0.40625 0.28125,0 1.21875,0.671875 z m -2.20313,6.84375 q -0.375,2.109375 -1.95312,7.015625 0.45312,-0.40625 1.25,-1.484375 0.10937,-0.140625 0.21875,-0.140625 0.25,0 0.0625,0.4375 -0.0781,0.171875 -1.3125,2.140625 -0.9375,1.5 -1.375,2.65625 -0.14063,0.359375 -0.51563,0.359375 -0.375,0 -1.01562,-0.359375 -0.40625,-0.21875 -0.40625,-0.328125 0,-0.09375 0.17187,-0.40625 0.84375,-1.484375 1.875,-4.96875 0.98438,-3.375 1.10938,-5.015625 0.0469,-0.703125 -0.14063,-0.703125 -0.14062,0 -0.5,0.34375 l -0.96875,0.90625 q -0.51562,0.46875 -0.51562,0.04687 0,-0.125 0.14062,-0.3125 0.73438,-1.03125 1.5625,-1.953125 0.25,-0.265625 0.48438,-0.265625 0.25,0 0.73437,0.34375 0.71875,0.1875 0.79688,0.234375 0.35937,0.21875 0.35937,0.8125 0,0.28125 -0.0625,0.640625 z m 13.53125,5.0625 q -0.9375,1.421875 -2.4375,4.125 -0.28125,0.703125 -0.54687,1.40625 -0.21875,0.484375 -0.57813,0.484375 -0.28125,0 -0.82812,-0.234375 -0.60938,-0.25 -0.60938,-0.5 0,-0.109375 0.20313,-0.484375 1.01562,-2.0625 1.8125,-5.140625 0.85937,-3.234375 0.73437,-4.9375 -0.0312,-0.6875 -0.3125,-0.6875 -0.20312,0 -0.60937,0.390625 -3.9375,3.84375 -6.8125,10.28125 -0.35938,0.796875 -0.84375,0.796875 -0.34375,0 -1.14063,-0.390625 -0.3125,-0.140625 -0.32812,-0.265625 0,-0.0625 0.17187,-0.4375 0.90625,-1.984375 1.79688,-5.03125 0.95312,-3.296875 1.07812,-5.140625 0.0312,-0.5625 -0.0312,-0.5625 -0.0156,0 -0.4375,0.421875 -0.42187,0.421875 -1.17187,1.09375 -0.14063,0.140625 -0.3125,0.140625 -0.21875,0 -0.21875,-0.171875 0,-0.125 0.15625,-0.28125 0.67187,-0.859375 1.76562,-2.140625 0.23438,-0.265625 0.48438,-0.265625 0.375,0 0.65625,0.546875 1.26562,0.375 1.1875,1.15625 -0.17188,1.71875 -1.76563,6.203125 1.04688,-2.015625 3.04688,-4.5 2,-2.5 2.96875,-2.953125 0.48437,-0.21875 0.6875,-0.21875 0.20312,0 0.65625,0.34375 1.29687,0.453125 1.28125,1.5 0,1.09375 -0.53125,3.515625 -0.42188,2 -0.78125,3.109375 0.45312,-0.578125 1.15625,-1.5 0.125,-0.15625 0.25,-0.15625 0.23437,0 0.23437,0.296875 0,0.09375 -0.0312,0.1875 z m 12.5625,-5.484375 q -4.79687,24.890625 -12.46875,24.875 -2.76562,0 -5.98437,-3.046875 -0.29688,-0.28125 -0.29688,-0.578125 0,-0.453125 0.42188,-0.453125 0.21875,0 0.42187,0.171875 2.54688,2.171875 4.5625,2.171875 6.4375,0 10.73438,-18.90625 -2.60938,4.484375 -4.54688,6.421875 -0.78125,0.796875 -1.39062,0.796875 -0.5625,0 -1.39063,-0.625 -1.48437,-0.734375 -1.42187,-2.40625 0.0937,-2.046875 1.57812,-5.078125 1.45313,-2.953125 3.03125,-4.453125 0.89063,-0.84375 1.60938,-0.84375 0.53125,0 1.17187,0.46875 0.0937,0.07813 1.25,1.109375 0.23438,0.203125 0.23438,0.40625 0,0.28125 -0.375,0.28125 -0.23438,0 -0.53125,-0.140625 -0.46875,-0.25 -0.92188,-0.25 -0.65625,0 -1.1875,0.46875 -1.14062,1 -2.39062,3.25 -1.35938,2.46875 -1.67188,4.5 -0.0781,0.546875 -0.0781,0.953125 0,1.15625 0.625,1.15625 0.42187,0 0.89062,-0.421875 1.85938,-1.59375 3.6875,-4.609375 1.70313,-2.78125 2.42188,-5.109375 0.26562,-0.828125 0.26562,-1.578125 0,-0.59375 0.28125,-0.59375 0.29688,0 1.15625,0.65625 0.51563,0.390625 0.3125,1.40625 z m 33.90625,-3.703125 q 0.17188,0.203125 0.17188,0.4375 0,0.46875 -0.39063,0.46875 -0.10937,0 -0.20312,-0.07813 -0.32813,-0.28125 -0.82813,-0.609375 -2.70312,9.953125 -6.53125,14.3125 -0.40625,0.453125 -1.09375,0.453125 -0.65625,0 -1.375,-0.359375 -2.1875,-0.640625 -3.03125,-1.328125 -1.23437,-0.984375 -1.34375,-3 -0.0469,-0.578125 -0.0469,-1.25 0,-4.359375 1.23437,-9.046875 -1.71875,1.84375 -3.8125,4.796875 -2.45312,3.453125 -3.39062,5.671875 -1,2.328125 -1.39063,2.90625 -0.3125,0.453125 -1.07812,0.828125 -1.25,0.625 -1.71875,0.625 -0.32813,0 -0.32813,-0.28125 0,-0.21875 0.1875,-0.625 1.60938,-3.40625 3.23438,-9.328125 1.625,-5.9375 1.625,-8.5 0,-0.40625 -0.0625,-0.671875 -1.625,0.390625 -3.89063,1.4375 -2.17187,1 -3.65625,1.984375 -0.79687,0.546875 -0.79687,1.453125 0,0.578125 0.3125,1.296875 0.0781,0.15625 0.0781,0.265625 0,0.265625 -0.26562,0.265625 -0.28125,0 -0.54688,-0.328125 -1.90625,-2.359375 -1.84375,-3.046875 0.0469,-0.8125 1.96875,-1.828125 1.39063,-0.734375 4.0625,-1.609375 2.75,-0.890625 3.5,-1.265625 0.0781,-0.234375 0.15625,-0.46875 0.14063,-0.359375 0.5,-0.359375 0.5625,0 1.76563,0.890625 0.98437,0.71875 0.98437,1.8125 0,0.265625 -0.0781,1.0625 -0.125,1.1875 -1.0625,4.796875 -0.89063,3.390625 -1.5625,5.390625 1.35937,-1.984375 4.40625,-5.96875 2.9375,-3.859375 3.4375,-4.34375 0.5,-1.84375 0.65625,-2.203125 0.35937,-0.8125 0.96875,-0.8125 0.20312,0 0.45312,0.07813 1.71875,0.53125 1.71875,1.03125 0,0.28125 -0.375,0.6875 l -1.07812,1.140625 v 0 l -0.0156,0.01563 q -2.14062,6.984375 -2.14062,11.671875 0,0.65625 0.0312,1.296875 0.0937,1.625 0.78125,2.671875 0.6875,1.046875 1.625,1.03125 1.09375,-0.01563 1.98437,-1.25 1.54688,-2.140625 3.20313,-5.953125 1.89062,-4.328125 2.42187,-7.609375 -0.73437,-0.84375 -0.73437,-2.359375 0,-1.265625 0.51562,-3.140625 0.26563,-1.015625 0.82813,-1.015625 0.51562,0 1.25,0.875 0.54687,0.671875 0.54687,1.546875 0,0.546875 -0.90625,4.40625 0.21875,0.21875 0.96875,1.03125 z m 5.5625,-2.71875 q 0.25,0.1875 0.25,0.421875 0,0.453125 -1.34375,1.40625 -0.89062,0.609375 -1.71875,0.4375 -0.46875,-0.09375 -0.8125,-0.34375 -0.10937,-0.09375 -0.17187,-0.1875 -0.0469,-0.109375 -0.0156,-0.171875 0.0469,-0.0625 0.1875,-0.03125 1.4375,-1.25 1.89063,-1.796875 0.35937,-0.40625 0.51562,-0.40625 0.28125,0 1.21875,0.671875 z m -2.20312,6.84375 q -0.375,2.109375 -1.95313,7.015625 0.45313,-0.40625 1.25,-1.484375 0.10938,-0.140625 0.21875,-0.140625 0.25,0 0.0625,0.4375 -0.0781,0.171875 -1.3125,2.140625 -0.9375,1.5 -1.375,2.65625 -0.14062,0.359375 -0.51562,0.359375 -0.375,0 -1.01563,-0.359375 -0.40625,-0.21875 -0.40625,-0.328125 0,-0.09375 0.17188,-0.40625 0.84375,-1.484375 1.875,-4.96875 0.98437,-3.375 1.10937,-5.015625 0.0469,-0.703125 -0.14062,-0.703125 -0.14063,0 -0.5,0.34375 l -0.96875,0.90625 q -0.51563,0.46875 -0.51563,0.04687 0,-0.125 0.14063,-0.3125 0.73437,-1.03125 1.5625,-1.953125 0.25,-0.265625 0.48437,-0.265625 0.25,0 0.73438,0.34375 0.71875,0.1875 0.79687,0.234375 0.35938,0.21875 0.35938,0.8125 0,0.28125 -0.0625,0.640625 z m 10.51562,-9.3125 q 0.4375,0.234375 0.4375,0.53125 0,0.203125 -0.29687,0.203125 -0.0625,0 -0.20313,-0.01563 -0.125,-0.03125 -0.1875,-0.03125 -0.59375,0 -1.4375,1.296875 -0.75,1.15625 -2.07812,5.03125 -0.125,0.34375 -0.0937,0.40625 0.0469,0.109375 0.40625,0.125 0.92187,0.07813 2.46875,-0.0625 0.53125,-0.04687 0.53125,0.453125 0,0.34375 -0.40625,0.421875 -0.32813,0.04687 -3.45313,0.28125 -1.875,5.484375 -2.28125,9.28125 -0.0156,0.203125 -0.0156,0.359375 0,0.53125 0.26562,0.53125 0.42188,0 2.54688,-2.046875 0.25,-0.25 0.48437,-0.25 0.20313,0 0.25,0.171875 0.0469,0.1875 -0.14062,0.4375 -1.26563,1.671875 -2.48438,2.84375 -0.51562,0.484375 -0.85937,0.484375 -0.34375,0 -1.0625,-0.546875 -0.89063,-0.234375 -0.89063,-0.9375 0,-0.109375 0.0312,-0.25 0.57813,-4.03125 2.26563,-9.921875 -0.82813,-0.109375 -1.5,-0.21875 -0.29688,-0.04687 -0.29688,-0.375 0,-0.359375 0.3125,-0.4375 0.3125,-0.07813 1.15625,-0.34375 0.51563,-0.171875 1,-0.46875 1.67188,-5.171875 2.625,-6.703125 0.54688,-0.875 1.17188,-0.875 0.59375,0 1.73437,0.625 z m 11.10938,-4.3125 q 0.20312,0.15625 0.20312,0.34375 0,0.28125 -0.35937,0.28125 -0.15625,0 -0.32813,-0.09375 -0.71875,-0.359375 -1.07812,-0.359375 -0.95313,0 -2.125,1.90625 -4.125,6.71875 -6.10938,17.59375 2.54688,-4.890625 5.82813,-7.8125 0.70312,-0.625 1.03125,-0.625 0.0937,0 0.78125,0.4375 0.82812,0.34375 0.9375,0.4375 0.40625,0.359375 0.40625,1.25 0,0.25 -0.0312,0.546875 -0.26563,2.78125 -1.59375,6.734375 0.48437,-0.65625 1.53125,-1.921875 0.25,-0.265625 0.42187,-0.265625 0.17188,0 0.17188,0.203125 0,0.234375 -0.20313,0.53125 -0.90625,1.3125 -2.40625,3.84375 -0.125,0.25 -0.60937,1.3125 -0.20313,0.5 -0.5625,0.5 -0.40625,0 -1.17188,-0.546875 -0.3125,-0.21875 -0.10937,-0.6875 2.6875,-6.75 2.84375,-10.078125 0.0469,-0.953125 -0.26563,-0.953125 -0.20312,0 -0.85937,0.53125 -1.20313,0.96875 -2.95313,3.4375 -2.3125,3.25 -3.57812,6.640625 -0.34375,0.96875 -0.64063,0.96875 -0.26562,0 -1.04687,-0.640625 -0.39063,-0.328125 -0.26563,-1.09375 1.8125,-9.921875 4.71875,-16.953125 2.15625,-5.234375 3.89063,-6.84375 0.4375,-0.40625 0.85937,-0.40625 0.4375,0 1.10938,0.5 0.78125,0.640625 1.5625,1.28125 z m 20.46875,5.171875 q -0.60938,2.140625 -1.65625,3.71875 -0.46875,0.703125 -0.89063,0.703125 -0.40625,0 -1.42187,-0.671875 -0.3125,-0.203125 -0.3125,-0.421875 0,-0.328125 0.54687,-0.46875 0.40625,-0.125 0.92188,-1.421875 0.48437,-1.234375 0.48437,-1.9375 0,-0.734375 -0.57812,-0.734375 -0.20313,0 -0.51563,0.0625 -0.60937,0.09375 -2.625,0.828125 -0.23437,0.07813 -0.42187,0.07813 -0.46875,0 -0.46875,-0.3125 0,-0.296875 0.48437,-0.53125 1.75,-0.875 3.45313,-1.46875 0.54687,-0.203125 0.78125,-0.203125 0.35937,0 0.9375,1 0.875,0.265625 1.07812,0.390625 0.34375,0.203125 0.34375,0.625 0,0.296875 -0.14062,0.765625 z m -4.67188,14.34375 q 0,2.828125 -2.875,4.546875 -0.82812,1.296875 -2.14062,1.28125 -2.32813,-0.03125 -5.1875,-2.078125 -2.45313,-1.75 -3.39063,-3.375 -0.89062,-1.515625 -0.89062,-1.90625 0,-0.484375 0.70312,-1.09375 0.65625,-0.578125 1.03125,-0.578125 0.35938,0 0.35938,0.46875 0,0.203125 -0.0781,0.5 0.82813,2.25 3.5,4.1875 2.67188,1.9375 4.84375,1.921875 1.92188,-0.01563 1.92188,-2.625 0,-1.4375 -2.25,-5.734375 -2.23438,-4.3125 -2.23438,-6.171875 0,-1.21875 0.6875,-2.171875 0.57813,-0.796875 2.03125,-1.890625 0.26563,-0.203125 0.53125,-0.203125 0.42188,0 0.42188,0.359375 0,0.25 -0.28125,0.515625 -1.20313,1.140625 -1.20313,2.78125 0,1.828125 2.25,6.03125 2.25,4.203125 2.25,5.234375 z m 13.5,-5.671875 q -1.4375,3.984375 -1.98437,6.6875 0.23437,-0.21875 0.60937,-0.671875 0.39063,-0.453125 0.48438,-0.53125 0.21875,-0.28125 0.46875,-0.28125 0.23437,0 0.23437,0.234375 0,0.140625 -0.125,0.328125 -1.46875,2.171875 -1.95312,4.390625 -0.14063,0.625 -0.42188,0.625 -0.26562,0 -0.98437,-0.5 -0.42188,-0.28125 -0.48438,-0.46875 -0.0781,-0.171875 0,-0.6875 0.65625,-3.96875 1.64063,-6.59375 -1.35938,2.203125 -3.70313,4.875 -2.04687,2.328125 -2.95312,2.96875 -0.65625,0.453125 -1,0.453125 -0.28125,0 -0.85938,-0.453125 -0.82812,-0.5 -0.82812,-1.375 0,-0.171875 0.0312,-0.390625 0.28125,-2.3125 2.03125,-5.375 1.75,-3.078125 4.01562,-5.1875 0.73438,-0.6875 1.3125,-0.671875 0.5625,0.03125 2.14063,1.484375 0.14062,0.125 0.14062,0.265625 0,0.25 -0.32812,0.25 -0.125,0 -0.23438,-0.04687 -1.10937,-0.46875 -1.78125,0.03125 -1.46875,1.078125 -3.25,3.796875 -2.0625,3.125 -2.48437,5.625 -0.0156,0.109375 -0.0156,0.203125 0,0.390625 0.3125,0.390625 0.53125,0 1.26563,-0.734375 1.75,-1.703125 3.75,-4.28125 2.04687,-2.671875 2.625,-4.03125 0.42187,-1 0.54687,-1.40625 0.20313,-0.703125 0.4375,-0.703125 0.23438,0 1.09375,0.640625 0.35938,0.265625 0.39063,0.484375 0.0312,0.1875 -0.14063,0.65625 z m 13.42188,4.84375 q -0.9375,1.421875 -2.4375,4.125 -0.28125,0.703125 -0.54688,1.40625 -0.21875,0.484375 -0.57812,0.484375 -0.28125,0 -0.82813,-0.234375 -0.60937,-0.25 -0.60937,-0.5 0,-0.109375 0.20312,-0.484375 1.01563,-2.0625 1.8125,-5.140625 0.85938,-3.234375 0.73438,-4.9375 -0.0312,-0.6875 -0.3125,-0.6875 -0.20313,0 -0.60938,0.390625 -3.9375,3.84375 -6.8125,10.28125 -0.35937,0.796875 -0.84375,0.796875 -0.34375,0 -1.14062,-0.390625 -0.3125,-0.140625 -0.32813,-0.265625 0,-0.0625 0.17188,-0.4375 0.90625,-1.984375 1.79687,-5.03125 0.95313,-3.296875 1.07813,-5.140625 0.0312,-0.5625 -0.0312,-0.5625 -0.0156,0 -0.4375,0.421875 -0.42188,0.421875 -1.17188,1.09375 -0.14062,0.140625 -0.3125,0.140625 -0.21875,0 -0.21875,-0.171875 0,-0.125 0.15625,-0.28125 0.67188,-0.859375 1.76563,-2.140625 0.23437,-0.265625 0.48437,-0.265625 0.375,0 0.65625,0.546875 1.26563,0.375 1.1875,1.15625 -0.17187,1.71875 -1.76562,6.203125 1.04687,-2.015625 3.04687,-4.5 2,-2.5 2.96875,-2.953125 0.48438,-0.21875 0.6875,-0.21875 0.20313,0 0.65625,0.34375 1.29688,0.453125 1.28125,1.5 0,1.09375 -0.53125,3.515625 -0.42187,2 -0.78125,3.109375 0.45313,-0.578125 1.15625,-1.5 0.125,-0.15625 0.25,-0.15625 0.23438,0 0.23438,0.296875 0,0.09375 -0.0312,0.1875 z m 20.85937,-18.6875 q 0.1875,0.140625 0.1875,0.3125 0,0.296875 -0.375,0.296875 -0.14062,0 -0.29687,-0.07813 -0.73438,-0.359375 -1.09375,-0.359375 -0.96875,0 -2.14063,1.90625 -4.29687,7.015625 -6.26562,18.6875 0.40625,-0.390625 1.09375,-1.21875 0.40625,-0.484375 0.59375,-0.484375 0.42187,0 0.0781,0.484375 -1.5,2.078125 -1.98437,4.484375 -0.1875,0.578125 -0.46875,0.578125 -0.14063,0 -0.34375,-0.140625 -0.78125,-0.53125 -0.875,-0.625 -0.3125,-0.296875 -0.3125,-0.796875 0,-0.265625 0.0781,-0.625 0.67188,-3.609375 1.10938,-5.375 -1.53125,2.203125 -3.46875,4.40625 -1.92188,2.1875 -2.79688,2.765625 -0.67187,0.453125 -1,0.453125 -0.28125,0 -0.85937,-0.453125 -1.01563,-0.625 -1.01563,-1.453125 0,-0.140625 0.0312,-0.3125 0.32813,-2.328125 2.07813,-5.390625 1.76562,-3.078125 4.03125,-5.171875 0.73437,-0.6875 1.3125,-0.671875 0.60937,0.03125 2.17187,1.484375 0.14063,0.125 0.14063,0.265625 0,0.25 -0.32813,0.25 -0.10937,0 -0.23437,-0.04687 -1.09375,-0.46875 -1.78125,0.03125 -1.46875,1.09375 -3.23438,3.796875 -2.04687,3.125 -2.40625,5.625 -0.0781,0.59375 0.3125,0.59375 0.51563,0 1.26563,-0.734375 1.73437,-1.703125 3.73437,-4.28125 2.04688,-2.671875 2.625,-4.03125 0.32813,-0.75 0.51563,-1.4375 1.625,-5.75 3.625,-9.828125 1.5625,-3.1875 2.75,-4.28125 0.4375,-0.421875 0.84375,-0.421875 0.4375,0 1.125,0.515625 0.78125,0.640625 1.57812,1.28125 z m 5.04688,13.4375 q -2.17188,10.015625 -4.07813,14.984375 -3.6875,9.65625 -8.46875,9.65625 -2.79687,0 -6.01562,-3.046875 -0.28125,-0.265625 -0.28125,-0.5625 0,-0.46875 0.4375,-0.46875 0.21875,0 0.42187,0.171875 2.54688,2.171875 4.54688,2.171875 3.67187,0 6.67187,-6.125 2.35938,-4.796875 4.10938,-12.875 0.10937,-0.578125 0.35937,-1.765625 -1.64062,2.671875 -3.67187,5.265625 -1.95313,2.5 -3.07813,3.4375 -0.625,0.515625 -1,0.515625 -0.29687,0 -0.60937,-0.328125 -0.32813,-0.421875 -0.67188,-0.828125 -0.15625,-0.1875 -0.15625,-0.34375 0,-0.01563 0,-0.03125 0.0312,-0.1875 0.28125,-0.265625 0.75,-1.015625 1.40625,-4.390625 0.5,-2.65625 0.6875,-5.046875 0.0312,-0.5625 -0.14062,-0.5625 -0.0469,0 -0.73438,0.5625 -1.09375,0.921875 -1.1875,0.921875 -0.21875,0 -0.21875,-0.21875 0,-0.109375 0.0937,-0.21875 0.26563,-0.328125 1.1875,-1.640625 0.82813,-1.171875 1.10938,-1.171875 0.21875,0 0.59375,0.1875 0.79687,-0.125 0.89062,-0.125 0.53125,0 0.53125,0.8125 0,1.359375 -0.78125,5.328125 -0.78125,3.953125 -1.28125,5.109375 1.5625,-1.234375 4.0625,-4.84375 2.4375,-3.515625 3.03125,-5.296875 0.0312,-1.046875 0.45313,-1.046875 0.32812,0 1.21875,0.671875 0.5,0.375 0.28125,1.40625 z"
         id="text1"
         transform="matrix(0.02493815,0,0,0.03521471,7.0499676,10.304748)"
         aria-label="CodingWithSandy" /></g></g></svg>
